<?xml version="1.0" encoding="UTF-8" standalone="no"?>
<!-- Created with Inkscape (http://www.inkscape.org/) -->

<svg
   width="128"
   height="128"
   viewBox="0 0 128 128"
   version="1.1"
   id="svg1"
   inkscape:version="1.4 (e7c3feb1, 2024-10-09)"
   sodipodi:docname="icon.svg"
   inkscape:export-filename="public/icons/icon-on-128.png"
   inkscape:export-xdpi="96"
   inkscape:export-ydpi="96"
   xmlns:inkscape="http://www.inkscape.org/namespaces/inkscape"
   xmlns:sodipodi="http://sodipodi.sourceforge.net/DTD/sodipodi-0.dtd"
   xmlns="http://www.w3.org/2000/svg"
   xmlns:svg="http://www.w3.org/2000/svg">
  <sodipodi:namedview
     id="namedview1"
     pagecolor="#ffffff"
     bordercolor="#999999"
     borderopacity="1"
     inkscape:showpageshadow="2"
     inkscape:pageopacity="0"
     inkscape:pagecheckerboard="true"
     inkscape:deskcolor="#d1d1d1"
     inkscape:document-units="px"
     showborder="false"
     inkscape:zoom="5.608409"
     inkscape:cx="31.648904"
     inkscape:cy="54.65008"
     inkscape:window-width="2552"
     inkscape:window-height="1370"
     inkscape:window-x="5"
     inkscape:window-y="36"
     inkscape:window-maximized="0"
     inkscape:current-layer="icon-off"
     showguides="true" />
  <defs
     id="defs1">
    <inkscape:path-effect
       effect="powerclip"
       message=""
       id="path-effect1"
       is_visible="true"
       lpeversion="1"
       inverse="true"
       flatten="false"
       hide_clip="false" />
    <clipPath
       clipPathUnits="userSpaceOnUse"
       id="clipPath6">
      <path
         id="lpe_path-effect6"
         style="fill:#000000"
         class="powerclip"
         d="M -1,-1 H 129 V 129 H -1 Z M 104,64 A 40,40 0 0 0 64,24 40,40 0 0 0 24,64 40,40 0 0 0 64,104 40,40 0 0 0 104,64 Z" />
    </clipPath>
    <clipPath
       clipPathUnits="userSpaceOnUse"
       id="clipPath6-3-7">
      <path
         id="lpe_path-effect6-9-3"
         style="fill:#000000"
         class="powerclip"
         d="M -1,-1 H 129 V 129 H -1 Z M 104,64 A 40,40 0 0 0 64,24 40,40 0 0 0 24,64 40,40 0 0 0 64,104 40,40 0 0 0 104,64 Z" />
    </clipPath>
    <clipPath
       clipPathUnits="userSpaceOnUse"
       id="clipPath6-3-7-7">
      <path
         id="lpe_path-effect6-9-3-4"
         style="fill:#000000"
         class="powerclip"
         d="M -1,-1 H 129 V 129 H -1 Z M 104,64 A 40,40 0 0 0 64,24 40,40 0 0 0 24,64 40,40 0 0 0 64,104 40,40 0 0 0 104,64 Z" />
    </clipPath>
    <clipPath
       clipPathUnits="userSpaceOnUse"
       id="clipPath12">
      <g
         inkscape:label="Layer 1"
         inkscape:groupmode="layer"
         id="g15"
         style="display:inline"
         sodipodi:insensitive="true">
        <path
           id="path13"
           clip-path="url(#clipPath6)"
           d="M 124,64 A 60,60 0 0 1 64,124 60,60 0 0 1 4,64 60,60 0 0 1 64,4 60,60 0 0 1 124,64 Z"
           style="fill:#000000" />
        <path
           id="path14"
           clip-path="url(#clipPath6-3-7)"
           d="M 124,64 A 60,60 0 0 1 64,124 60,60 0 0 1 4,64 60,60 0 0 1 64,4 60,60 0 0 1 124,64 Z"
           style="fill:#000000"
           transform="matrix(0.56666667,0,0,0.56666667,27.733334,27.733334)" />
        <path
           id="path15"
           clip-path="url(#clipPath6-3-7-7)"
           d="M 124,64 A 60,60 0 0 1 64,124 60,60 0 0 1 4,64 60,60 0 0 1 64,4 60,60 0 0 1 124,64 Z"
           style="fill:#000000"
           transform="matrix(0.3,0,0,0.3,44.8,44.800001)" />
      </g>
    </clipPath>
    <clipPath
       clipPathUnits="userSpaceOnUse"
       id="clipPath1">
      <circle
         style="display:none;fill:#000000;fill-opacity:1;stroke-width:1.33333"
         id="circle1"
         cx="64"
         cy="64"
         r="40"
         d="M 104,64 A 40,40 0 0 1 64,104 40,40 0 0 1 24,64 40,40 0 0 1 64,24 40,40 0 0 1 104,64 Z" />
      <path
         id="lpe_path-effect1"
         style="display:inline;fill:#000000;fill-opacity:1;stroke-width:1.33333"
         class="powerclip"
         d="M -1,-1 H 129 V 129 H -1 Z M 104,64 A 40,40 0 0 0 64,24 40,40 0 0 0 24,64 40,40 0 0 0 64,104 40,40 0 0 0 104,64 Z" />
    </clipPath>
  </defs>
  <g
     inkscape:groupmode="layer"
     id="layer2"
     inkscape:label="icon-on"
     clip-path="url(#clipPath12)"
     style="display:inline">
    <rect
       style="display:inline;fill:#3e70f5;fill-opacity:1"
       id="rect17"
       width="128"
       height="128"
       x="0"
       y="0"
       inkscape:label="rect17" />
    <path
       id="circle2"
       style="display:inline;mix-blend-mode:screen;fill:#3e70f5;fill-opacity:1;stroke-width:2.15958"
       d="M 64.000001,27.774794 A 33.999401,36.610957 0 0 0 29.999999,64.386397 V 128 H 98.000001 V 64.386397 a 33.999401,36.610957 0 0 0 -34,-36.611603 z" />
    <path
       id="path2"
       style="display:inline;mix-blend-mode:screen;fill:#3e70f5;fill-opacity:1;stroke-width:1.14947"
       d="M 64,44.5 A 18.084457,19.5 0 0 0 45.915543,64 v 64 H 82.084457 V 64 A 18.084457,19.5 0 0 0 64,44.5 Z" />
  </g>
  <g
     inkscape:groupmode="layer"
     id="icon-off"
     inkscape:label="icon-off"
     style="display:none">
    <path
       style="display:inline;fill:#3e70f5;stroke-width:2"
       id="path1"
       clip-path="url(#clipPath1)"
       inkscape:path-effect="#path-effect1"
       sodipodi:type="arc"
       sodipodi:cx="64"
       sodipodi:cy="64"
       sodipodi:rx="60"
       sodipodi:ry="60"
       d="M 124,64 A 60,60 0 0 1 64,124 60,60 0 0 1 4,64 60,60 0 0 1 64,4 60,60 0 0 1 124,64 Z" />
  </g>
</svg>
